<?xml version="1.0" encoding="UTF-8" standalone="no"?>
<!-- Generator: Adobe Illustrator 16.0.0, SVG Export Plug-In . SVG Version: 6.00 Build 0)  -->

<svg
   xmlns:dc="http://purl.org/dc/elements/1.1/"
   xmlns:cc="http://creativecommons.org/ns#"
   xmlns:rdf="http://www.w3.org/1999/02/22-rdf-syntax-ns#"
   xmlns:svg="http://www.w3.org/2000/svg"
   xmlns="http://www.w3.org/2000/svg"
   xmlns:sodipodi="http://sodipodi.sourceforge.net/DTD/sodipodi-0.dtd"
   xmlns:inkscape="http://www.inkscape.org/namespaces/inkscape"
   version="1.1"
   id="Layer_1"
   x="0px"
   y="0px"
   width="266.893px"
   height="266.895px"
   viewBox="0 0 266.893 266.895"
   enable-background="new 0 0 266.893 266.895"
   xml:space="preserve"
   inkscape:version="0.48.4 r9939"
   sodipodi:docname="F_icon.svg"><metadata
     id="metadata9"><rdf:RDF><cc:Work
         rdf:about=""><dc:format>image/svg+xml</dc:format><dc:type
           rdf:resource="http://purl.org/dc/dcmitype/StillImage" /><dc:title></dc:title></cc:Work></rdf:RDF></metadata><defs
     id="defs7" /><sodipodi:namedview
     pagecolor="#ffffff"
     bordercolor="#666666"
     borderopacity="1"
     objecttolerance="10"
     gridtolerance="10"
     guidetolerance="10"
     inkscape:pageopacity="0"
     inkscape:pageshadow="2"
     inkscape:window-width="1680"
     inkscape:window-height="1026"
     id="namedview5"
     showgrid="false"
     inkscape:zoom="1.4462617"
     inkscape:cx="133.4465"
     inkscape:cy="133.44749"
     inkscape:window-x="0"
     inkscape:window-y="24"
     inkscape:window-maximized="1"
     inkscape:current-layer="Layer_1" /><path
     id="Blue_1_"
     fill="#3C5A99"
     d="M248.082,262.307c7.854,0,14.223-6.369,14.223-14.225V18.812  c0-7.857-6.368-14.224-14.223-14.224H18.812c-7.857,0-14.224,6.367-14.224,14.224v229.27c0,7.855,6.366,14.225,14.224,14.225  H248.082z"
     style="fill:#4f6aa3;fill-opacity:1"
     inkscape:export-filename="/home/krotovic/Workspace/facebook_redesign/icon.png"
     inkscape:export-xdpi="90"
     inkscape:export-ydpi="90" /><path
     style="fill:#304b83;stroke:none;stroke-width:1px;stroke-linecap:butt;stroke-linejoin:miter;stroke-opacity:1;fill-opacity:1"
     d="M 180.46875 24.90625 L 123.78125 72.59375 L 123.0625 160.40625 L 100.9375 241.3125 L 121.9375 262.3125 L 248.09375 262.3125 C 255.94775 262.3125 262.3125 255.94975 262.3125 248.09375 L 262.3125 166.5 L 180.46875 24.90625 z "
     transform="translate(-8.1786701e-6,0)"
     id="path3754" /><path
     id="f"
     d="m 140.92273,241.56387 v -99.803 h 33.499 l 5.016,-38.895 h -38.515 V 78.033865 c 0,-11.261 3.127,-18.935 19.275,-18.935 l 20.596,-0.009 v -34.788 c -3.562,-0.474 -15.788,-1.533 -30.012,-1.533 -29.695,0 -50.025,18.126 -50.025,51.413 V 102.86587 H 67.171731 v 38.895 h 33.584999 v 99.803 h 40.166 z"
     style="fill:#e8e8e8;fill-opacity:1"
     inkscape:connector-curvature="0" /></svg>